<mxfile host="app.diagrams.net" modified="2023-07-21T11:59:47.642Z" agent="Mozilla/5.0 (Windows NT 10.0; Win64; x64) AppleWebKit/537.36 (KHTML, like Gecko) Chrome/114.0.0.0 YaBrowser/23.7.0.2526 Yowser/2.5 Safari/537.36" etag="_HdAKt4Ki0ZHaSRYXtm0" version="21.6.5" type="google">
  <diagram name="Страница 1" id="IyhP0Bf16u9Pp1GBC6mL">
    <mxGraphModel grid="1" page="1" gridSize="10" guides="1" tooltips="1" connect="1" arrows="1" fold="1" pageScale="1" pageWidth="827" pageHeight="1169" math="0" shadow="0">
      <root>
        <mxCell id="0" />
        <mxCell id="1" parent="0" />
        <mxCell id="8h4SvegEHWFZaO0T5vBt-23" style="edgeStyle=orthogonalEdgeStyle;rounded=0;orthogonalLoop=1;jettySize=auto;html=1;entryX=0.5;entryY=0;entryDx=0;entryDy=0;" edge="1" parent="1" source="8h4SvegEHWFZaO0T5vBt-1" target="8h4SvegEHWFZaO0T5vBt-2">
          <mxGeometry relative="1" as="geometry" />
        </mxCell>
        <mxCell id="8h4SvegEHWFZaO0T5vBt-1" value="Begin" style="strokeWidth=2;html=1;shape=mxgraph.flowchart.terminator;whiteSpace=wrap;" vertex="1" parent="1">
          <mxGeometry x="390" y="70" width="100" height="60" as="geometry" />
        </mxCell>
        <mxCell id="8h4SvegEHWFZaO0T5vBt-24" style="edgeStyle=orthogonalEdgeStyle;rounded=0;orthogonalLoop=1;jettySize=auto;html=1;entryX=0.5;entryY=0;entryDx=0;entryDy=0;" edge="1" parent="1" source="8h4SvegEHWFZaO0T5vBt-2" target="8h4SvegEHWFZaO0T5vBt-3">
          <mxGeometry relative="1" as="geometry" />
        </mxCell>
        <mxCell id="8h4SvegEHWFZaO0T5vBt-2" value="input(array A)" style="shape=parallelogram;html=1;strokeWidth=2;perimeter=parallelogramPerimeter;whiteSpace=wrap;rounded=1;arcSize=12;size=0.23;" vertex="1" parent="1">
          <mxGeometry x="375" y="160" width="130" height="60" as="geometry" />
        </mxCell>
        <mxCell id="8h4SvegEHWFZaO0T5vBt-9" style="edgeStyle=orthogonalEdgeStyle;rounded=0;orthogonalLoop=1;jettySize=auto;html=1;entryX=0.5;entryY=0;entryDx=0;entryDy=0;entryPerimeter=0;" edge="1" parent="1" source="8h4SvegEHWFZaO0T5vBt-3" target="8h4SvegEHWFZaO0T5vBt-4">
          <mxGeometry relative="1" as="geometry" />
        </mxCell>
        <mxCell id="8h4SvegEHWFZaO0T5vBt-3" value="len_a = size_of(A)&lt;br&gt;i = 0" style="rounded=1;whiteSpace=wrap;html=1;absoluteArcSize=1;arcSize=14;strokeWidth=2;" vertex="1" parent="1">
          <mxGeometry x="380" y="260" width="120" height="60" as="geometry" />
        </mxCell>
        <mxCell id="8h4SvegEHWFZaO0T5vBt-10" style="edgeStyle=orthogonalEdgeStyle;rounded=0;orthogonalLoop=1;jettySize=auto;html=1;entryX=0.5;entryY=0;entryDx=0;entryDy=0;entryPerimeter=0;" edge="1" parent="1" source="8h4SvegEHWFZaO0T5vBt-4">
          <mxGeometry relative="1" as="geometry">
            <mxPoint x="440" y="500" as="targetPoint" />
          </mxGeometry>
        </mxCell>
        <mxCell id="8h4SvegEHWFZaO0T5vBt-20" style="edgeStyle=orthogonalEdgeStyle;rounded=0;orthogonalLoop=1;jettySize=auto;html=1;entryX=0.5;entryY=0;entryDx=0;entryDy=0;entryPerimeter=0;" edge="1" parent="1" source="8h4SvegEHWFZaO0T5vBt-4" target="8h4SvegEHWFZaO0T5vBt-19">
          <mxGeometry relative="1" as="geometry">
            <Array as="points">
              <mxPoint x="560" y="410" />
              <mxPoint x="560" y="640" />
              <mxPoint x="440" y="640" />
            </Array>
          </mxGeometry>
        </mxCell>
        <mxCell id="8h4SvegEHWFZaO0T5vBt-4" value="i &amp;lt; len_a / 2" style="strokeWidth=2;html=1;shape=mxgraph.flowchart.decision;whiteSpace=wrap;" vertex="1" parent="1">
          <mxGeometry x="390" y="360" width="100" height="100" as="geometry" />
        </mxCell>
        <mxCell id="8h4SvegEHWFZaO0T5vBt-7" value="b = A[i]&lt;br&gt;A[i] = A[len_a-i]&lt;br&gt;A[len_a-i] = b" style="rounded=1;whiteSpace=wrap;html=1;absoluteArcSize=1;arcSize=14;strokeWidth=2;" vertex="1" parent="1">
          <mxGeometry x="390" y="500" width="100" height="80" as="geometry" />
        </mxCell>
        <mxCell id="8h4SvegEHWFZaO0T5vBt-18" style="edgeStyle=orthogonalEdgeStyle;rounded=0;orthogonalLoop=1;jettySize=auto;html=1;entryX=0;entryY=0.5;entryDx=0;entryDy=0;entryPerimeter=0;exitX=0.5;exitY=1;exitDx=0;exitDy=0;" edge="1" parent="1" source="8h4SvegEHWFZaO0T5vBt-7" target="8h4SvegEHWFZaO0T5vBt-4">
          <mxGeometry relative="1" as="geometry">
            <mxPoint x="440" y="840" as="sourcePoint" />
            <Array as="points">
              <mxPoint x="440" y="620" />
              <mxPoint x="320" y="620" />
              <mxPoint x="320" y="410" />
            </Array>
          </mxGeometry>
        </mxCell>
        <mxCell id="8h4SvegEHWFZaO0T5vBt-22" style="edgeStyle=orthogonalEdgeStyle;rounded=0;orthogonalLoop=1;jettySize=auto;html=1;entryX=0.5;entryY=0;entryDx=0;entryDy=0;entryPerimeter=0;" edge="1" parent="1" source="8h4SvegEHWFZaO0T5vBt-19" target="8h4SvegEHWFZaO0T5vBt-21">
          <mxGeometry relative="1" as="geometry" />
        </mxCell>
        <mxCell id="8h4SvegEHWFZaO0T5vBt-19" value="print(array A)" style="strokeWidth=2;html=1;shape=mxgraph.flowchart.document2;whiteSpace=wrap;size=0.25;" vertex="1" parent="1">
          <mxGeometry x="390" y="680" width="100" height="60" as="geometry" />
        </mxCell>
        <mxCell id="8h4SvegEHWFZaO0T5vBt-21" value="End" style="strokeWidth=2;html=1;shape=mxgraph.flowchart.terminator;whiteSpace=wrap;" vertex="1" parent="1">
          <mxGeometry x="390" y="780" width="100" height="60" as="geometry" />
        </mxCell>
        <mxCell id="8h4SvegEHWFZaO0T5vBt-25" value="true" style="text;html=1;align=center;verticalAlign=middle;resizable=0;points=[];autosize=1;strokeColor=none;fillColor=none;" vertex="1" parent="1">
          <mxGeometry x="440" y="448" width="40" height="30" as="geometry" />
        </mxCell>
        <mxCell id="8h4SvegEHWFZaO0T5vBt-26" value="false" style="text;html=1;align=center;verticalAlign=middle;resizable=0;points=[];autosize=1;strokeColor=none;fillColor=none;" vertex="1" parent="1">
          <mxGeometry x="485" y="380" width="50" height="30" as="geometry" />
        </mxCell>
      </root>
    </mxGraphModel>
  </diagram>
</mxfile>
